<svg width="230" height="230" fill="none" xmlns="http://www.w3.org/2000/svg"><path fill-rule="evenodd" clip-rule="evenodd" d="M229.846 121.003c-.157 3.05-.432 6.068-.822 9.051L99.946.976c2.983-.39 6.001-.665 9.051-.822l120.849 120.849zM89.308 2.881A114.519 114.519 0 0198.7 1.146L228.854 131.3a114.911 114.911 0 01-1.735 9.393L89.308 2.881zm132.066 155.897a114.58 114.58 0 002.684-7.191L78.413 5.942a114.143 114.143 0 00-7.19 2.684l150.151 150.152zM70.224 9.042a114.442 114.442 0 00-7.585 3.543L217.415 167.36a114.301 114.301 0 003.543-7.586L70.225 9.042zM227.79 92.447a114.08 114.08 0 00-3.518-13.392L150.945 5.729a114.168 114.168 0 00-13.392-3.518l90.236 90.236zm-91.984-90.57A115.12 115.12 0 00123.079.28l106.642 106.642c-.3-4.312-.837-8.558-1.598-12.726L135.805 1.877zM230 115c0 1.558-.031 3.108-.092 4.65L110.35.092a116.968 116.968 0 0111.22.093L229.815 108.43c.123 2.174.185 4.365.185 6.57zm-3.149 26.839a113.75 113.75 0 01-2.443 8.685L79.476 5.592c2.848-.925 5.745-1.74 8.686-2.443l138.689 138.69zm-13.158-85.904a114.468 114.468 0 019.85 20.978L153.087 6.457a114.453 114.453 0 0120.978 9.85l39.628 39.628zM61.707 13.067a114.844 114.844 0 00-7.087 4.04L212.892 175.38a114.623 114.623 0 004.041-7.087L61.707 13.067zM212.35 176.251l-158.6-158.6a115.219 115.219 0 00-5.896 3.978L208.37 182.147a114.936 114.936 0 003.978-5.896zm-4.573 6.715L47.034 22.224a115.466 115.466 0 00-6.224 4.904L202.872 189.19a115.182 115.182 0 004.904-6.224zM177.851 18.679a115.624 115.624 0 0133.47 33.47l-33.47-33.47zm24.37 171.274L40.047 27.779a115.722 115.722 0 00-5.793 5.336l162.631 162.631a116.462 116.462 0 005.336-5.793zm-6.041 6.502a116.166 116.166 0 01-5.094 4.779L28.766 38.914a115.697 115.697 0 014.78-5.094L196.18 196.455zm-11.999 10.417c2.108-1.59 4.159-3.25 6.15-4.978L28.106 39.669a115.549 115.549 0 00-4.978 6.15l161.053 161.053zm-.809.605L22.523 46.628a115.25 115.25 0 00-4.536 6.592L176.78 212.013a115.34 115.34 0 006.592-4.536zm-14.618 9.213a114.084 114.084 0 01-7.499 3.629L9.681 68.744a113.81 113.81 0 013.63-7.498L168.753 216.69zm.921-.494L13.804 60.325c1.148-2.12 2.36-4.2 3.635-6.238L175.913 212.56a114.324 114.324 0 01-6.238 3.635zm-9.406 4.551L9.253 69.731a114.18 114.18 0 00-3.092 8.036l146.072 146.072a114.317 114.317 0 008.036-3.092zm-9.094 3.448a113.945 113.945 0 01-7.637 2.236L3.568 86.462a114.37 114.37 0 012.237-7.637l145.37 145.37zm-18.034 4.382a114.165 114.165 0 009.265-1.863L3.286 87.594a114.419 114.419 0 00-1.863 9.265L133.14 228.577zM.199 108.177c.2-3.406.547-6.772 1.036-10.092l130.68 130.68c-3.32.489-6.686.837-10.092 1.036L.199 108.177zm-.07 1.344l120.35 120.351a117.159 117.159 0 01-9.826.047L.081 119.347a117.004 117.004 0 01.047-9.826zm.016 11.305l109.029 109.029a115.36 115.36 0 01-12.423-1.295L1.44 133.249a115.432 115.432 0 01-1.295-12.423zm1.579 14.121l93.33 93.329a114.112 114.112 0 01-14.723-3.594L5.318 149.669a114.22 114.22 0 01-3.594-14.722zm4.28 16.822a114.399 114.399 0 009.081 20.209l42.937 42.937a114.378 114.378 0 0020.21 9.082l-72.23-72.228zm11.16 23.703a115.602 115.602 0 0037.364 37.364l-37.364-37.364z" fill="url(#paint0_linear_37_196)" fill-opacity=".4"/><defs><linearGradient id="paint0_linear_37_196" x1="46.404" y1="25.219" x2="180.57" y2="209.32" gradientUnits="userSpaceOnUse"><stop stop-color="#ED7B50"/><stop offset=".542" stop-color="#488AEA"/><stop offset="1" stop-color="#2C2C2C"/></linearGradient></defs></svg>